<svg data-v-fde0c5aa="" xmlns="http://www.w3.org/2000/svg" viewBox="0 0 300 300" class="font"><!----><defs data-v-fde0c5aa=""><!----></defs><rect data-v-fde0c5aa="" fill="transparent" x="0" y="0" width="300px" height="300px" class="logo-background-square"></rect><defs data-v-fde0c5aa=""><linearGradient data-v-fde0c5aa="" gradientTransform="rotate(25)" id="cf489234-80bb-41a9-a934-8c5b79682b6d" x1="0%" y1="0%" x2="100%" y2="0%"><stop data-v-fde0c5aa="" offset="0%" stop-color="#006678" stop-opacity="1"></stop><stop data-v-fde0c5aa="" offset="100%" stop-color="#4FA8FF" stop-opacity="1"></stop></linearGradient></defs><g data-v-fde0c5aa="" id="56ae1200-bf2f-44bd-a08a-c959d74f6c5f" fill="url(#cf489234-80bb-41a9-a934-8c5b79682b6d)" transform="matrix(3.905556414853766,0,0,3.905556414853766,34.4931655854182,118.42357716807936)"><path d="M2.52 3.30L2.52 7.14L2.52 7.14Q3.19 5.98 4.48 5.98L4.48 5.98L4.48 5.98Q5.77 5.98 6.62 6.94L6.62 6.94L6.62 6.94Q7.48 7.90 7.48 9.47L7.48 9.47L7.48 9.47Q7.48 11.05 6.61 12.02L6.61 12.02L6.61 12.02Q5.74 12.99 4.49 12.99L4.49 12.99L4.49 12.99Q3.82 12.99 3.28 12.66L3.28 12.66L3.28 12.66Q2.74 12.32 2.44 11.66L2.44 11.66L2.18 12.84L1.41 12.84L1.41 3.30L2.52 3.30ZM4.41 6.96L4.41 6.96L4.41 6.96Q3.61 6.96 3.08 7.47L3.08 7.47L3.08 7.47Q2.55 7.98 2.52 8.89L2.52 8.89L2.52 9.98L2.52 9.98Q2.52 10.91 3.07 11.46L3.07 11.46L3.07 11.46Q3.63 12.01 4.41 12.01L4.41 12.01L4.41 12.01Q5.19 12.01 5.77 11.32L5.77 11.32L5.77 11.32Q6.34 10.63 6.34 9.48L6.34 9.48L6.34 9.48Q6.34 8.33 5.78 7.64L5.78 7.64L5.78 7.64Q5.21 6.96 4.41 6.96ZM14.14 12.84L14.14 11.51L14.14 11.51Q13.45 12.96 11.91 12.96L11.91 12.96L11.91 12.96Q10.78 12.96 10.09 12.33L10.09 12.33L10.09 12.33Q9.39 11.70 9.39 10.39L9.39 10.39L9.39 6.13L10.50 6.13L10.50 10.30L10.50 10.30Q10.50 12.00 12.07 12.00L12.07 12.00L12.07 12.00Q12.98 12.00 13.54 11.30L13.54 11.30L13.54 11.30Q14.11 10.60 14.14 9.51L14.14 9.51L14.14 6.13L15.25 6.13L15.25 12.84L14.14 12.84ZM17.72 7.78L17.72 7.78Q17.72 6.96 18.43 6.47L18.43 6.47L18.43 6.47Q19.14 5.98 20.34 5.98L20.34 5.98L20.34 5.98Q21.55 5.98 22.23 6.48L22.23 6.48L22.23 6.48Q22.90 6.99 22.93 7.76L22.93 7.76L21.85 7.76L21.85 7.76Q21.73 6.85 20.31 6.85L20.31 6.85L20.31 6.85Q19.63 6.85 19.26 7.15L19.26 7.15L19.26 7.15Q18.89 7.46 18.89 7.82L18.89 7.82L18.89 7.82Q18.89 8.18 19.17 8.42L19.17 8.42L19.17 8.42Q19.45 8.67 20.06 8.85L20.06 8.85L21.41 9.30L21.41 9.30Q22.26 9.56 22.71 9.98L22.71 9.98L22.71 9.98Q23.17 10.39 23.17 11.11L23.17 11.11L23.17 11.11Q23.17 11.83 22.43 12.41L22.43 12.41L22.43 12.41Q21.69 12.99 20.36 12.99L20.36 12.99L20.36 12.99Q19.03 12.99 18.28 12.40L18.28 12.40L18.28 12.40Q17.54 11.80 17.50 10.86L17.50 10.86L18.56 10.86L18.56 10.86Q18.59 11.49 19.07 11.81L19.07 11.81L19.07 11.81Q19.56 12.12 20.29 12.12L20.29 12.12L20.29 12.12Q21.01 12.12 21.49 11.82L21.49 11.82L21.49 11.82Q21.97 11.51 21.97 11.08L21.97 11.08L21.97 11.08Q21.97 10.65 21.69 10.43L21.69 10.43L21.69 10.43Q21.41 10.21 20.78 10.04L20.78 10.04L19.47 9.60L19.47 9.60Q17.72 9.09 17.72 7.78L17.72 7.78ZM25.51 12.84L25.51 6.13L26.61 6.13L26.61 12.84L25.51 12.84ZM26.05 4.56L26.05 4.56L26.05 4.56Q25.72 4.56 25.53 4.38L25.53 4.38L25.53 4.38Q25.34 4.19 25.34 3.87L25.34 3.87L25.34 3.87Q25.34 3.56 25.53 3.37L25.53 3.37L25.53 3.37Q25.72 3.18 26.05 3.18L26.05 3.18L26.05 3.18Q26.39 3.18 26.59 3.37L26.59 3.37L26.59 3.37Q26.80 3.56 26.80 3.87L26.80 3.87L26.80 3.87Q26.80 4.19 26.59 4.38L26.59 4.38L26.59 4.38Q26.39 4.56 26.05 4.56ZM30.56 6.15L30.69 7.43L30.69 7.43Q31.35 5.98 32.94 5.98L32.94 5.98L32.94 5.98Q34.13 5.98 34.80 6.76L34.80 6.76L34.80 6.76Q35.46 7.55 35.46 8.90L35.46 8.90L35.46 12.84L34.37 12.84L34.37 8.90L34.37 8.90Q34.37 7.94 33.91 7.45L33.91 7.45L33.91 7.45Q33.46 6.96 32.62 6.96L32.62 6.96L32.62 6.96Q31.78 6.96 31.26 7.64L31.26 7.64L31.26 7.64Q30.74 8.33 30.72 9.55L30.72 9.55L30.72 12.84L29.61 12.84L29.61 6.15L30.56 6.15ZM40.38 12.10L40.38 12.10L40.38 12.10Q41.76 12.10 41.96 10.88L41.96 10.88L43.09 10.88L43.09 10.88Q42.94 11.89 42.20 12.44L42.20 12.44L42.20 12.44Q41.47 12.99 40.38 12.99L40.38 12.99L40.38 12.99Q39.03 12.99 38.19 12.03L38.19 12.03L38.19 12.03Q37.35 11.07 37.35 9.48L37.35 9.48L37.35 9.48Q37.35 7.88 38.20 6.93L38.20 6.93L38.20 6.93Q39.05 5.98 40.45 5.98L40.45 5.98L40.45 5.98Q41.86 5.98 42.55 7.07L42.55 7.07L42.55 7.07Q43.25 8.16 43.04 9.73L43.04 9.73L38.46 9.73L38.46 9.73Q38.46 10.77 38.96 11.43L38.96 11.43L38.96 11.43Q39.47 12.10 40.38 12.10ZM41.19 7.03L41.19 7.03L41.19 7.03Q40.87 6.86 40.40 6.86L40.40 6.86L40.40 6.86Q39.55 6.86 39.05 7.44L39.05 7.44L39.05 7.44Q38.56 8.02 38.47 8.89L38.47 8.89L42.04 8.89L42.04 8.89Q42.04 7.49 41.19 7.03ZM44.93 7.78L44.93 7.78Q44.93 6.96 45.63 6.47L45.63 6.47L45.63 6.47Q46.34 5.98 47.54 5.98L47.54 5.98L47.54 5.98Q48.75 5.98 49.43 6.48L49.43 6.48L49.43 6.48Q50.11 6.99 50.13 7.76L50.13 7.76L49.06 7.76L49.06 7.76Q48.93 6.85 47.52 6.85L47.52 6.85L47.52 6.85Q46.83 6.85 46.46 7.15L46.46 7.15L46.46 7.15Q46.09 7.46 46.09 7.82L46.09 7.82L46.09 7.82Q46.09 8.18 46.37 8.42L46.37 8.42L46.37 8.42Q46.65 8.67 47.26 8.85L47.26 8.85L48.61 9.30L48.61 9.30Q49.46 9.56 49.92 9.98L49.92 9.98L49.92 9.98Q50.37 10.39 50.37 11.11L50.37 11.11L50.37 11.11Q50.37 11.83 49.63 12.41L49.63 12.41L49.63 12.41Q48.89 12.99 47.56 12.99L47.56 12.99L47.56 12.99Q46.23 12.99 45.49 12.40L45.49 12.40L45.49 12.40Q44.74 11.80 44.70 10.86L44.70 10.86L45.77 10.86L45.77 10.86Q45.79 11.49 46.28 11.81L46.28 11.81L46.28 11.81Q46.76 12.12 47.49 12.12L47.49 12.12L47.49 12.12Q48.22 12.12 48.69 11.82L48.69 11.82L48.69 11.82Q49.17 11.51 49.17 11.08L49.17 11.08L49.17 11.08Q49.17 10.65 48.89 10.43L48.89 10.43L48.89 10.43Q48.61 10.21 47.98 10.04L47.98 10.04L46.68 9.60L46.68 9.60Q44.93 9.09 44.93 7.78L44.93 7.78ZM52.29 7.78L52.29 7.78Q52.29 6.96 53.00 6.47L53.00 6.47L53.00 6.47Q53.70 5.98 54.91 5.98L54.91 5.98L54.91 5.98Q56.11 5.98 56.79 6.48L56.79 6.48L56.79 6.48Q57.47 6.99 57.50 7.76L57.50 7.76L56.42 7.76L56.42 7.76Q56.29 6.85 54.88 6.85L54.88 6.85L54.88 6.85Q54.19 6.85 53.82 7.15L53.82 7.15L53.82 7.15Q53.45 7.46 53.45 7.82L53.45 7.82L53.45 7.82Q53.45 8.18 53.73 8.42L53.73 8.42L53.73 8.42Q54.01 8.67 54.63 8.85L54.63 8.85L55.97 9.30L55.97 9.30Q56.83 9.56 57.28 9.98L57.28 9.98L57.28 9.98Q57.74 10.39 57.74 11.11L57.74 11.11L57.74 11.11Q57.74 11.83 56.99 12.41L56.99 12.41L56.99 12.41Q56.25 12.99 54.92 12.99L54.92 12.99L54.92 12.99Q53.59 12.99 52.85 12.40L52.85 12.40L52.85 12.40Q52.11 11.80 52.07 10.86L52.07 10.86L53.13 10.86L53.13 10.86Q53.16 11.49 53.64 11.81L53.64 11.81L53.64 11.81Q54.12 12.12 54.85 12.12L54.85 12.12L54.85 12.12Q55.58 12.12 56.06 11.82L56.06 11.82L56.06 11.82Q56.53 11.51 56.53 11.08L56.53 11.08L56.53 11.08Q56.53 10.65 56.25 10.43L56.25 10.43L56.25 10.43Q55.97 10.21 55.34 10.04L55.34 10.04L54.04 9.60L54.04 9.60Q52.29 9.09 52.29 7.78L52.29 7.78Z"></path></g><!----><!----></svg>